<svg width="16.666748" height="16.666672" viewBox="0 0 16.6667 16.6667" fill="none" xmlns="http://www.w3.org/2000/svg" xmlns:xlink="http://www.w3.org/1999/xlink">
	<desc>
			Created with Pixso.
	</desc>
	<path d="M7.10425 12.125L13 6.22917L12.0417 5.29167L7.10425 10.2292L4.60425 7.72917L3.66675 8.66667L7.10425 12.125M8.33325 16.6667C7.19434 16.6667 6.11816 16.4479 5.10425 16.0104C4.09033 15.5729 3.20483 14.9757 2.448 14.2188C1.69092 13.4618 1.09375 12.5764 0.65625 11.5625C0.21875 10.5486 0 9.47223 0 8.33333C0 7.18056 0.21875 6.09723 0.65625 5.08333C1.09375 4.06944 1.69092 3.1875 2.448 2.4375C3.20483 1.6875 4.09033 1.09375 5.10425 0.65625C6.11816 0.21875 7.19434 0 8.33325 0C9.48608 0 10.5693 0.21875 11.5833 0.65625C12.5972 1.09375 13.4792 1.6875 14.2292 2.4375C14.9792 3.1875 15.573 4.06944 16.0105 5.08333C16.448 6.09723 16.6667 7.18056 16.6667 8.33333C16.6667 9.47223 16.448 10.5486 16.0105 11.5625C15.573 12.5764 14.9792 13.4618 14.2292 14.2188C13.4792 14.9757 12.5972 15.5729 11.5833 16.0104C10.5693 16.4479 9.48608 16.6667 8.33325 16.6667L8.33325 16.6667Z" fill-rule="nonzero" fill="#FA8C16"/>
	<defs/>
</svg>
