<svg width="16.666748" height="16.666672" viewBox="0 0 16.6667 16.6667" fill="none" xmlns="http://www.w3.org/2000/svg" xmlns:xlink="http://www.w3.org/1999/xlink">
	<desc>
			Created with Pixso.
	</desc>
	<path d="M3.875 9.375C4.16675 9.375 4.41309 9.27431 4.6145 9.07292C4.81592 8.87152 4.91675 8.625 4.91675 8.33333C4.91675 8.04167 4.81592 7.79514 4.6145 7.59375C4.41309 7.39236 4.16675 7.29167 3.875 7.29167C3.58325 7.29167 3.33691 7.39236 3.1355 7.59375C2.93408 7.79514 2.83325 8.04167 2.83325 8.33333C2.83325 8.625 2.93408 8.87152 3.1355 9.07292C3.33691 9.27431 3.58325 9.375 3.875 9.375L3.875 9.375M8.33325 9.375C8.625 9.375 8.87158 9.27431 9.073 9.07292C9.27441 8.87152 9.375 8.625 9.375 8.33333C9.375 8.04167 9.27441 7.79514 9.073 7.59375C8.87158 7.39236 8.625 7.29167 8.33325 7.29167C8.04175 7.29167 7.79517 7.39236 7.59375 7.59375C7.39233 7.79514 7.29175 8.04167 7.29175 8.33333C7.29175 8.625 7.39233 8.87152 7.59375 9.07292C7.79517 9.27431 8.04175 9.375 8.33325 9.375L8.33325 9.375M12.7708 9.375C13.0625 9.375 13.3091 9.27431 13.5105 9.07292C13.7119 8.87152 13.8125 8.625 13.8125 8.33333C13.8125 8.04167 13.7119 7.79514 13.5105 7.59375C13.3091 7.39236 13.0625 7.29167 12.7708 7.29167C12.4792 7.29167 12.2327 7.39236 12.0312 7.59375C11.8298 7.79514 11.7292 8.04167 11.7292 8.33333C11.7292 8.625 11.8298 8.87152 12.0312 9.07292C12.2327 9.27431 12.4792 9.375 12.7708 9.375L12.7708 9.375M8.33325 16.6667C7.19434 16.6667 6.11816 16.4479 5.10425 16.0104C4.09033 15.5729 3.20483 14.9757 2.448 14.2188C1.69092 13.4618 1.09375 12.5764 0.65625 11.5625C0.21875 10.5486 0 9.46527 0 8.3125C0 7.17361 0.21875 6.09723 0.65625 5.08333C1.09375 4.06944 1.69092 3.1875 2.448 2.4375C3.20483 1.6875 4.09033 1.09375 5.10425 0.65625C6.11816 0.21875 7.20142 0 8.35425 0C9.49316 0 10.5693 0.21875 11.5833 0.65625C12.5972 1.09375 13.4792 1.6875 14.2292 2.4375C14.9792 3.1875 15.573 4.06944 16.0105 5.08333C16.448 6.09723 16.6667 7.18056 16.6667 8.33333C16.6667 9.47223 16.448 10.5486 16.0105 11.5625C15.573 12.5764 14.9792 13.4618 14.2292 14.2188C13.4792 14.9757 12.5972 15.5729 11.5833 16.0104C10.5693 16.4479 9.48608 16.6667 8.33325 16.6667L8.33325 16.6667M8.35425 15.4167C10.3125 15.4167 11.9792 14.7257 13.3542 13.3438C14.7292 11.9618 15.4167 10.2847 15.4167 8.3125C15.4167 6.35417 14.7292 4.6875 13.3542 3.3125C11.9792 1.9375 10.3057 1.25 8.33325 1.25C6.375 1.25 4.70483 1.9375 3.323 3.3125C1.94092 4.6875 1.25 6.36111 1.25 8.33333C1.25 10.2917 1.94092 11.9618 3.323 13.3438C4.70483 14.7257 6.38184 15.4167 8.35425 15.4167L8.35425 15.4167Z" fill-rule="nonzero" fill="#1B1B1B" fill-opacity="0.500000"/>
	<defs/>
</svg>
