<svg width="10.350098" height="10.362488" viewBox="0 0 10.3501 10.3625" fill="none" xmlns="http://www.w3.org/2000/svg" xmlns:xlink="http://www.w3.org/1999/xlink">
	<desc>
			Created with Pixso.
	</desc>
	<path d="M0.75 10.3625C0.550049 10.3625 0.375 10.2875 0.225098 10.1375C0.0749512 9.98749 0 9.8125 0 9.61249L0 2.11249C0 1.91251 0.0749512 1.73749 0.225098 1.58749C0.375 1.4375 0.550049 1.36249 0.75 1.36249L5.8125 1.36249L5.0625 2.11249L0.75 2.11249L0.75 9.61249L8.25 9.61249L8.25 5.26251L9 4.51251L9 9.61249C9 9.8125 8.92505 9.98749 8.7749 10.1375C8.625 10.2875 8.44995 10.3625 8.25 10.3625L0.75 10.3625M6.7749 1.46249L7.3125 1.98749L3.75 5.53751L3.75 6.61249L4.8125 6.61249L8.38745 3.03751L8.9126 3.5625L5.125 7.36249L3 7.36249L3 5.23749L6.7749 1.46249M8.9126 3.5625L6.7749 1.46249L8.0249 0.212494C8.16675 0.0708313 8.34375 0 8.55615 0C8.7688 0 8.9458 0.0750122 9.0874 0.225006L10.1375 1.28751C10.2791 1.4375 10.3501 1.61459 10.3501 1.81876C10.3501 2.02292 10.2749 2.19583 10.125 2.33749L8.9126 3.5625Z" fill-rule="nonzero" fill="#FA541C"/>
	<defs/>
</svg>
