<svg width="10.863770" height="9.721039" viewBox="0 0 10.8638 9.72104" fill="none" xmlns="http://www.w3.org/2000/svg" xmlns:xlink="http://www.w3.org/1999/xlink">
	<desc>
			Created with Pixso.
	</desc>
	<path d="M6.4884 9.50258C6.32593 9.64821 6.12952 9.72104 5.89917 9.72104C5.66895 9.72104 5.47253 9.64821 5.30994 9.50258L0.230225 4.95154C0.140015 4.87064 0.0789795 4.78568 0.0473633 4.69669C0.0157471 4.60768 0 4.51463 0 4.41754L0 0.728165C0 0.517807 0.0767822 0.343857 0.230225 0.206314C0.383789 0.0687714 0.578003 0 0.812744 0L4.93066 0C5.03906 0 5.14734 0.0141602 5.25574 0.0424805C5.36414 0.0708008 5.4635 0.125412 5.55371 0.206314L10.6063 4.73309C10.778 4.88681 10.8638 5.06683 10.8638 5.27315C10.8638 5.47946 10.778 5.65948 10.6063 5.8132L6.4884 9.50258M5.93311 9.005L10.051 5.31561L4.93066 0.728165L0.812744 0.728165L0.812744 4.41754L5.93311 9.005M2.23511 2.6214C2.42468 2.6214 2.58948 2.5587 2.72949 2.43329C2.86951 2.30789 2.93945 2.16023 2.93945 1.99033C2.93945 1.82042 2.86951 1.67276 2.72949 1.54735C2.58948 1.42195 2.42468 1.35925 2.23511 1.35925C2.04541 1.35925 1.88062 1.42195 1.7406 1.54735C1.60071 1.67276 1.53064 1.82042 1.53064 1.99033C1.53064 2.16023 1.60071 2.30789 1.7406 2.43329C1.88062 2.5587 2.04541 2.6214 2.23511 2.6214L2.23511 2.6214Z" fill-rule="evenodd" fill="#000000"/>
	<defs/>
</svg>
