<svg width="20.000000" height="20.000000" viewBox="0 0 20 20" fill="none" xmlns="http://www.w3.org/2000/svg" xmlns:xlink="http://www.w3.org/1999/xlink">
	<desc>
			Created with Pixso.
	</desc>
	<g clip-path="url(#clip12_157)">
		<path d="M5.97913 18.3125C5.5625 18.3125 5.20837 18.1667 4.91663 17.875C4.625 17.5834 4.47913 17.2292 4.47913 16.8125C4.47913 16.3959 4.625 16.0417 4.91663 15.75C5.20837 15.4584 5.5625 15.3125 5.97913 15.3125C6.39587 15.3125 6.75 15.4584 7.04163 15.75C7.33337 16.0417 7.47913 16.3959 7.47913 16.8125C7.47913 17.2292 7.33337 17.5834 7.04163 17.875C6.75 18.1667 6.39587 18.3125 5.97913 18.3125L5.97913 18.3125M14.3125 18.3125C13.8959 18.3125 13.5416 18.1667 13.25 17.875C12.9584 17.5834 12.8125 17.2292 12.8125 16.8125C12.8125 16.3959 12.9584 16.0417 13.25 15.75C13.5416 15.4584 13.8959 15.3125 14.3125 15.3125C14.7291 15.3125 15.0834 15.4584 15.375 15.75C15.6666 16.0417 15.8125 16.3959 15.8125 16.8125C15.8125 17.2292 15.6666 17.5834 15.375 17.875C15.0834 18.1667 14.7291 18.3125 14.3125 18.3125L14.3125 18.3125M4.89587 4.56253L7.1875 9.31252L13.1875 9.31252L15.7916 4.56253L4.89587 4.56253M4.27087 3.31253L16.5416 3.31253C16.8611 3.31253 17.1041 3.45834 17.2709 3.75003C17.4375 4.04169 17.4375 4.33334 17.2709 4.62503L14.4584 9.68752C14.3055 9.95142 14.1077 10.1632 13.8646 10.3229C13.6216 10.4827 13.3541 10.5625 13.0625 10.5625L6.75 10.5625L5.58337 12.7292L15.8125 12.7292L15.8125 13.9792L5.77087 13.9792C5.1875 13.9792 4.76733 13.7847 4.51038 13.3959C4.25342 13.007 4.25696 12.5695 4.52087 12.0834L5.85413 9.62502L2.6875 2.91669L1.0625 2.91669L1.0625 1.66669L3.5 1.66669L4.27087 3.31253M7.1875 9.31252L13.1875 9.31252L7.1875 9.31252Z" fill-rule="nonzero" fill="#FFFFFF"/>
	</g>
	<defs>
		<clipPath id="clip12_157">
			<rect width="20.000000" height="20.000000" fill="white"/>
		</clipPath>
	</defs>
</svg>
