<svg width="9.750000" height="11.361465" viewBox="0 0 9.75 11.3615" fill="none" xmlns="http://www.w3.org/2000/svg" xmlns:xlink="http://www.w3.org/1999/xlink">
	<desc>
			Created with Pixso.
	</desc>
	<path d="M3.25 0.8125L3.25 0L6.5 0L6.5 0.8125L3.25 0.8125M4.46875 6.86563L5.28125 6.86563L5.28125 3.75104L4.46875 3.75104L4.46875 6.86563M4.875 11.3615C4.20691 11.3615 3.57727 11.2328 2.98596 10.9755C2.39465 10.7182 1.87781 10.3684 1.43542 9.92604C0.993042 9.48367 0.643188 8.96684 0.385986 8.37552C0.128662 7.78419 0 7.15451 0 6.48647C0 5.81841 0.128662 5.18872 0.385986 4.5974C0.643188 4.00607 0.993042 3.48924 1.43542 3.04688C1.87781 2.60451 2.39465 2.25468 2.98596 1.99739C3.57727 1.7401 4.20691 1.61147 4.875 1.61147C5.47986 1.61147 6.04858 1.71303 6.5813 1.91615C7.11389 2.11928 7.58789 2.40138 8.00317 2.7625L8.69373 2.07187L9.26245 2.64062L8.5719 3.33125C8.89685 3.69237 9.17444 4.1302 9.40466 4.64479C9.63489 5.15938 9.75 5.77327 9.75 6.48647C9.75 7.15451 9.62134 7.78419 9.36401 8.37552C9.10681 8.96684 8.75696 9.48367 8.31458 9.92604C7.87219 10.3684 7.35535 10.7182 6.76404 10.9755C6.17273 11.2328 5.54309 11.3615 4.875 11.3615L4.875 11.3615M4.875 10.549C6.00342 10.549 6.96265 10.154 7.75256 9.36406C8.54248 8.57413 8.9375 7.61493 8.9375 6.48647C8.9375 5.35799 8.54248 4.39879 7.75256 3.60886C6.96265 2.81892 6.00342 2.42397 4.875 2.42397C3.74658 2.42397 2.78735 2.81892 1.99744 3.60886C1.20752 4.39879 0.8125 5.35799 0.8125 6.48647C0.8125 7.61493 1.20752 8.57413 1.99744 9.36406C2.78735 10.154 3.74658 10.549 4.875 10.549L4.875 10.549Z" fill-rule="nonzero" fill="#808080"/>
	<defs/>
</svg>
